#
#
#

mtllib frame.mtl


#
# Cube
#
g Cube


#
# Cube_Phong[31]
#
usemtl Cube_Phong[31]

v -1.000000 0.010000 -0.980000
v -0.980000 0.010000 -0.980000
v -0.980000 0.010000 0.980000
v -1.000000 0.010000 0.980000
v -1.000000 -0.010000 -0.980000
v -0.980000 -0.010000 -0.980000
v -0.980000 -0.010000 0.980000
v -1.000000 -0.010000 0.980000
vn 0.000000 1.000000 0.000000
vn 0.000000 0.000000 -1.000000
vn 1.000000 0.000000 0.000000
vn 0.000000 0.000000 1.000000
vn -1.000000 0.000000 0.000000
vn 0.000000 -1.000000 0.000000
vt 0.250000 0.750000
vt 0.500000 0.750000
vt 0.500000 1.000000
vt 0.250000 1.000000
vt 0.250000 0.500000
vt 0.500000 0.500000
vt 0.750000 0.250000
vt 0.500000 0.250000
vt 0.500000 0.000000
vt 0.750000 0.000000
vt 0.250000 0.250000
vt 0.250000 0.000000
vt 0.000000 0.250000
vt 0.000000 0.000000
f 4/1/1 3/2/1 2/3/1 1/4/1
f 1/2/2 2/1/2 6/5/2 5/6/2
f 2/7/3 3/8/3 7/9/3 6/10/3
f 3/8/4 4/11/4 8/12/4 7/9/4
f 4/11/5 1/13/5 5/14/5 8/12/5
f 5/6/6 6/5/6 7/11/6 8/8/6


#
# Cube
#
g Cube


#
# Cube_Phong[43]
#
usemtl Cube_Phong[43]

v -1.000000 0.010000 1.000000
v -1.000000 0.010000 0.980000
v 1.000000 0.010000 0.980000
v 1.000000 0.010000 1.000000
v -1.000000 -0.010000 1.000000
v -1.000000 -0.010000 0.980000
v 1.000000 -0.010000 0.980000
v 1.000000 -0.010000 1.000000
vn 0.000000 1.000000 0.000000
vn -1.000000 0.000000 0.000000
vn -0.000000 0.000000 -1.000000
vn 1.000000 0.000000 -0.000000
vn 0.000000 0.000000 1.000000
vn 0.000000 -1.000000 -0.000000
vt 0.250000 0.750000
vt 0.500000 0.750000
vt 0.500000 1.000000
vt 0.250000 1.000000
vt 0.250000 0.500000
vt 0.500000 0.500000
vt 0.750000 0.250000
vt 0.500000 0.250000
vt 0.500000 0.000000
vt 0.750000 0.000000
vt 0.250000 0.250000
vt 0.250000 0.000000
vt 0.000000 0.250000
vt 0.000000 0.000000
f 12/15/7 11/16/7 10/17/7 9/18/7
f 9/16/8 10/15/8 14/19/8 13/20/8
f 10/21/9 11/22/9 15/23/9 14/24/9
f 11/22/10 12/25/10 16/26/10 15/23/10
f 12/25/11 9/27/11 13/28/11 16/26/11
f 13/20/12 14/19/12 15/25/12 16/22/12


#
# Cube
#
g Cube


#
# Cube_Phong[49]
#
usemtl Cube_Phong[49]

v -1.000000 0.010000 -0.980000
v -1.000000 0.010000 -1.000000
v 1.000000 0.010000 -1.000000
v 1.000000 0.010000 -0.980000
v -1.000000 -0.010000 -0.980000
v -1.000000 -0.010000 -1.000000
v 1.000000 -0.010000 -1.000000
v 1.000000 -0.010000 -0.980000
vn 0.000000 1.000000 0.000000
vn -1.000000 0.000000 0.000000
vn -0.000000 0.000000 -1.000000
vn 1.000000 0.000000 -0.000000
vn 0.000000 0.000000 1.000000
vn 0.000000 -1.000000 -0.000000
vt 0.250000 0.750000
vt 0.500000 0.750000
vt 0.500000 1.000000
vt 0.250000 1.000000
vt 0.250000 0.500000
vt 0.500000 0.500000
vt 0.750000 0.250000
vt 0.500000 0.250000
vt 0.500000 0.000000
vt 0.750000 0.000000
vt 0.250000 0.250000
vt 0.250000 0.000000
vt 0.000000 0.250000
vt 0.000000 0.000000
f 20/29/13 19/30/13 18/31/13 17/32/13
f 17/30/14 18/29/14 22/33/14 21/34/14
f 18/35/15 19/36/15 23/37/15 22/38/15
f 19/36/16 20/39/16 24/40/16 23/37/16
f 20/39/17 17/41/17 21/42/17 24/40/17
f 21/34/18 22/33/18 23/39/18 24/36/18


#
# Cube
#
g Cube


#
# Cube_Phong[55]
#
usemtl Cube_Phong[55]

v 0.980000 0.010000 -0.980000
v 1.000000 0.010000 -0.980000
v 1.000000 0.010000 0.980000
v 0.980000 0.010000 0.980000
v 0.980000 -0.010000 -0.980000
v 1.000000 -0.010000 -0.980000
v 1.000000 -0.010000 0.980000
v 0.980000 -0.010000 0.980000
vn 0.000000 1.000000 0.000000
vn 0.000000 0.000000 -1.000000
vn 1.000000 0.000000 0.000000
vn 0.000000 0.000000 1.000000
vn -1.000000 0.000000 0.000000
vn 0.000000 -1.000000 0.000000
vt 0.250000 0.750000
vt 0.500000 0.750000
vt 0.500000 1.000000
vt 0.250000 1.000000
vt 0.250000 0.500000
vt 0.500000 0.500000
vt 0.750000 0.250000
vt 0.500000 0.250000
vt 0.500000 0.000000
vt 0.750000 0.000000
vt 0.250000 0.250000
vt 0.250000 0.000000
vt 0.000000 0.250000
vt 0.000000 0.000000
f 28/43/19 27/44/19 26/45/19 25/46/19
f 25/44/20 26/43/20 30/47/20 29/48/20
f 26/49/21 27/50/21 31/51/21 30/52/21
f 27/50/22 28/53/22 32/54/22 31/51/22
f 28/53/23 25/55/23 29/56/23 32/54/23
f 29/48/24 30/47/24 31/53/24 32/50/24
