{
	"asset": {
		"generator": "Tilt Brush 16.0b.",
		"version": "1.1",
		"copyright": "Unknown."
	},
	"buffers": {
		"Untitled": {
			"byteLength": 13252,
			"type": "arraybuffer",
			"uri": "Untitled.bin"
		}
	},
	"accessors": {
		"accessor_position_Light_2241cd32-8ba2-48a5-9ee7-2caef7e9ed62_0_0": {
			"bufferView": "vec3BufferView",
			"byteOffset": 0,
			"byteStride": 12,
			"componentType": 5126,
			"count": 190,
			"max": [ 0.02627416, 1.057403, -0.2144746 ],
			"min": [ -0.1056737, 0.9119079, -0.3053388 ],
			"type": "VEC3"
		 },
		"accessor_normal_Light_2241cd32-8ba2-48a5-9ee7-2caef7e9ed62_0_0": {
			"bufferView": "vec3BufferView",
			"byteOffset": 2280,
			"byteStride": 12,
			"componentType": 5126,
			"count": 190,
			"max": [ 0.7530698, 0.104381, 0.8792676 ],
			"min": [ 0.4001104, -0.8258712, -0.5045071 ],
			"type": "VEC3"
		 },
		"accessor_color_Light_2241cd32-8ba2-48a5-9ee7-2caef7e9ed62_0_0": {
			"bufferView": "vec4BufferView",
			"byteOffset": 0,
			"byteStride": 16,
			"componentType": 5126,
			"count": 190,
			"max": [ 0.6392157, 0.4823529, 0.427451, 0.9960784 ],
			"min": [ 0.2156863, 0.02745098, 0.02745098, 0.7372549 ],
			"type": "VEC4"
		 },
		"accessor_tangent_Light_2241cd32-8ba2-48a5-9ee7-2caef7e9ed62_0_0": {
			"bufferView": "vec4BufferView",
			"byteOffset": 3040,
			"byteStride": 16,
			"componentType": 5126,
			"count": 190,
			"max": [ 0.8838825, 0.9835785, 0.9579657, 1 ],
			"min": [ -0.8613749, -0.9745343, -0.6667472, 1 ],
			"type": "VEC4"
		 },
		"accessor_uv0_Light_2241cd32-8ba2-48a5-9ee7-2caef7e9ed62_0_0": {
			"bufferView": "vec2BufferView",
			"byteOffset": 0,
			"byteStride": 8,
			"componentType": 5126,
			"count": 190,
			"max": [ 1, 1 ],
			"min": [ 0, 0 ],
			"type": "VEC2"
		 },
		"accessor_indices_0_Light_2241cd32-8ba2-48a5-9ee7-2caef7e9ed62_0_0": {
			"bufferView": "ushortBufferView",
			"byteOffset": 0,
			"byteStride": 0,
			"componentType": 5123,
			"count": 546,
			"max": [ 189 ],
			"min": [ 0 ],
			"type": "SCALAR"
		 }
	},
	"bufferViews": {
		"ushortBufferView": {
			"buffer": "Untitled",
			"byteLength": 1092,
			"byteOffset": 0,
			"target": 34963
		},
		"vec2BufferView": {
			"buffer": "Untitled",
			"byteLength": 1520,
			"byteOffset": 1092,
			"target": 34962
		},
		"vec3BufferView": {
			"buffer": "Untitled",
			"byteLength": 4560,
			"byteOffset": 2612,
			"target": 34962
		},
		"vec4BufferView": {
			"buffer": "Untitled",
			"byteLength": 6080,
			"byteOffset": 7172,
			"target": 34962
		}
	},
	"meshes": {
		"mesh_Light_2241cd32-8ba2-48a5-9ee7-2caef7e9ed62_0_0": {
			"name": "mesh_Light_2241cd32-8ba2-48a5-9ee7-2caef7e9ed62_0_0",
			"primitives": [
				{
					"attributes": {
						"POSITION": "accessor_position_Light_2241cd32-8ba2-48a5-9ee7-2caef7e9ed62_0_0",
						"NORMAL": "accessor_normal_Light_2241cd32-8ba2-48a5-9ee7-2caef7e9ed62_0_0",
						"COLOR": "accessor_color_Light_2241cd32-8ba2-48a5-9ee7-2caef7e9ed62_0_0",
						"TANGENT": "accessor_tangent_Light_2241cd32-8ba2-48a5-9ee7-2caef7e9ed62_0_0",
						"TEXCOORD_0": "accessor_uv0_Light_2241cd32-8ba2-48a5-9ee7-2caef7e9ed62_0_0"
					},
					"indices": "accessor_indices_0_Light_2241cd32-8ba2-48a5-9ee7-2caef7e9ed62_0_0",
					"material": "material_2241cd32-8ba2-48a5-9ee7-2caef7e9ed62",
					"mode": 4
				}
			]
		}
	},
	"shaders": {
		"vertex_2241cd32-8ba2-48a5-9ee7-2caef7e9ed62": {
			"type": 35633,
			"uri": "Light-2241cd32-8ba2-48a5-9ee7-2caef7e9ed62-v10.0-vertex.glsl"
		},
		"fragment_2241cd32-8ba2-48a5-9ee7-2caef7e9ed62": {
			"type": 35632,
			"uri": "Light-2241cd32-8ba2-48a5-9ee7-2caef7e9ed62-v10.0-fragment.glsl"
		}
	},
	"programs": {
		"program_2241cd32-8ba2-48a5-9ee7-2caef7e9ed62": {
			"attributes": [
				"a_position",
				"a_normal",
				"a_color",
				"a_tangent",
				"a_texcoord0"				
			],
			"vertexShader": "vertex_2241cd32-8ba2-48a5-9ee7-2caef7e9ed62",
			"fragmentShader": "fragment_2241cd32-8ba2-48a5-9ee7-2caef7e9ed62"
		}
	},
	"techniques": {
		"technique_2241cd32-8ba2-48a5-9ee7-2caef7e9ed62": {
			"program": "program_2241cd32-8ba2-48a5-9ee7-2caef7e9ed62",
			"parameters": {
				"position": {
					"type": 35665,
					"semantic": "POSITION"
				},
				"normal": {
					"type": 35665,
					"semantic": "NORMAL"
				},
				"color": {
					"type": 35666,
					"semantic": "COLOR"
				},
				"tangent": {
					"type": 35666,
					"semantic": "TANGENT"
				},
				"texcoord0": {
					"type": 35664,
					"semantic": "TEXCOORD_0"
				},
				"modelViewMatrix": {
					"type": 35676,
					"semantic": "MODELVIEW"
				},
				"projectionMatrix": {
					"type": 35676,
					"semantic": "PROJECTION"
				},
				"normalMatrix": {
					"type": 35675,
					"semantic": "MODELVIEWINVERSETRANSPOSE"
				},
				"SceneLight_0_matrix": {
					"type": 35676,
					"semantic": "MODELVIEW",
					"node": "node_SceneLight_0_-10815414"
				},
				"SceneLight_0_color": {
					"type": 35666,
					"node": "node_SceneLight_0_-10815414"
				},
				"SceneLight_1_matrix": {
					"type": 35676,
					"semantic": "MODELVIEW",
					"node": "node_SceneLight_1_-10815420"
				},
				"SceneLight_1_color": {
					"type": 35666,
					"node": "node_SceneLight_1_-10815420"
				},
				"ambient_light_color": {
					"type": 35666
				},
				"EmissionGain": {
					"type": 5126
				},
				"MainTex_TexelSize": {
					"type": 35666
				},
				"MainTex": {
					"type": 35678
				}				
			},
			"attributes": {
				"a_position": "position",
				"a_normal": "normal",
				"a_color": "color",
				"a_tangent": "tangent",
				"a_texcoord0": "texcoord0"				
			},
			"uniforms": {
				"u_modelViewMatrix": "modelViewMatrix",
				"u_projectionMatrix": "projectionMatrix",
				"u_normalMatrix": "normalMatrix",
				"u_SceneLight_0_matrix": "SceneLight_0_matrix",
				"u_SceneLight_0_color": "SceneLight_0_color",
				"u_SceneLight_1_matrix": "SceneLight_1_matrix",
				"u_SceneLight_1_color": "SceneLight_1_color",
				"u_ambient_light_color": "ambient_light_color",
				"u_EmissionGain": "EmissionGain",
				"u_MainTex_TexelSize": "MainTex_TexelSize",
				"u_MainTex": "MainTex"				
			},
			"states": {
				"enable": [
					2929,
					3042
				],
				"functions": {
					"blendFuncSeparate": [1, 1, 1, 1],
					"depthMask": [false]
				}
			}
		}
	},
	"samplers": {
		"sampler_LINEAR_LINEAR_REPEAT": {
			"magFilter": 9729,
			"minFilter": 9987,
			"wrapS": 10497,
			"wrapT": 10497
		}
	},
	"textures": {
		"texture_2241cd32-8ba2-48a5-9ee7-2caef7e9ed62_MainTex": {
			"format": 6408,
			"internalFormat": 6408,
			"sampler": "sampler_LINEAR_LINEAR_REPEAT",
			"source": "image_2241cd32-8ba2-48a5-9ee7-2caef7e9ed62_MainTex",
			"target": 3553,
			"type": 5121
		}
	},
	"images": {
		"image_2241cd32-8ba2-48a5-9ee7-2caef7e9ed62_MainTex": {
			"uri": "Light-2241cd32-8ba2-48a5-9ee7-2caef7e9ed62-v10.0-MainTex.png"
		}
	},
	"materials": {
		"material_2241cd32-8ba2-48a5-9ee7-2caef7e9ed62": {
			"technique": "technique_2241cd32-8ba2-48a5-9ee7-2caef7e9ed62",
			"values": {
				"SceneLight_0_color": [0.7780392, 0.8156863, 0.9913726, 1],
				"SceneLight_1_color": [0.4282353, 0.4211765, 0.3458824, 1],
				"ambient_light_color": [0.3921569, 0.3921569, 0.3921569, 1],
				"EmissionGain": 0.45,
				"MainTex_TexelSize": [0.001953125, 0.00390625, 512, 256],
				"MainTex": "texture_2241cd32-8ba2-48a5-9ee7-2caef7e9ed62_MainTex"				
			},
			"name": "material_2241cd32-8ba2-48a5-9ee7-2caef7e9ed62"
		}
	},
	"nodes": {
		"node_Light_2241cd32-8ba2-48a5-9ee7-2caef7e9ed62_0_0": {
			"name": "node_Light_2241cd32-8ba2-48a5-9ee7-2caef7e9ed62_0_0",
			"meshes": [
				"mesh_Light_2241cd32-8ba2-48a5-9ee7-2caef7e9ed62_0_0"
			],
			"matrix": [1, 0, 0, 0, 0, 1, 0, 0, 0, 0, 1, 0, 0, 0, 0, 1]
		},
		"node_SceneLight_0_-10815414": {
			"name": "node_SceneLight_0_-10815414",
			"light": "SceneLight_0",
			"matrix": [0.898794, 0.2191856, -0.3796406, 0, -0.4383712, 0.449397, -0.7783785, 0, -1.490116E-08, 0.8660254, 0.4999999, 0, 0, 0.021875, 0.05458749, 1]
		},
		"node_SceneLight_1_-10815420": {
			"name": "node_SceneLight_1_-10815420",
			"light": "SceneLight_1",
			"matrix": [0.7660444, -0.4924039, -0.4131759, 0, -0.6427876, -0.5868242, -0.4924039, 0, 8.940697E-08, 0.6427876, -0.7660446, 0, 0, 0.021875, 0.05458749, 1]
		}
	},
	"scene": "defaultScene",
	"scenes": {
		"defaultScene": {
			"nodes": [
				"node_Light_2241cd32-8ba2-48a5-9ee7-2caef7e9ed62_0_0",
				"node_SceneLight_0_-10815414",
				"node_SceneLight_1_-10815420"
			],
			"extras": {
				"TB_EnvironmentGuid": "ab080599-e465-4a6d-8587-43bf495af68b",
				"TB_Environment": "Standard",
				"TB_SkyColorA": "0.2745098, 0.2745098, 0.3176471",
				"TB_SkyColorB": "0.03529412, 0.03529412, 0.08627451",
				"TB_SkyGradientDirection": "0, 1, 0",
				"TB_FogColor": "0.1647059, 0.1647059, 0.2078431",
				"TB_FogDensity": "0.0025",
				"TB_SkyColorHorizon": "0.2745098, 0.2745098, 0.3176471",
				"TB_SkyColorZenith": "0.03529412, 0.03529412, 0.08627451"
			}
		}
	}
}