# This file uses centimeters as units for non-parametric coordinates.

mtllib ControllerTrigger.mtl
g default
v 0.006928 -0.014486 -0.032161
v 0.006928 -0.014706 -0.032480
v 0.006442 -0.014706 -0.032480
v 0.006442 -0.014486 -0.032161
v -0.006283 -0.014706 -0.032480
v -0.006283 -0.014486 -0.032161
v -0.006770 -0.014706 -0.032480
v -0.006770 -0.014486 -0.032161
v 0.006928 -0.017162 -0.035820
v 0.006442 -0.017162 -0.035820
v -0.006283 -0.017162 -0.035820
v -0.006770 -0.017162 -0.035820
v 0.006928 -0.018851 -0.038148
v 0.006442 -0.018851 -0.038148
v -0.006283 -0.018851 -0.038148
v -0.006770 -0.018851 -0.038148
v 0.006928 -0.020386 -0.040334
v 0.006442 -0.020386 -0.040334
v -0.006283 -0.020386 -0.040334
v -0.006770 -0.020386 -0.040334
v 0.006928 -0.022178 -0.042741
v 0.006442 -0.022178 -0.042741
v -0.006283 -0.022178 -0.042741
v -0.006770 -0.022178 -0.042741
v 0.006928 -0.022514 -0.043135
v 0.006442 -0.022514 -0.043135
v -0.006283 -0.022514 -0.043135
v -0.006770 -0.022514 -0.043135
v 0.006928 -0.014834 -0.031918
v 0.006442 -0.014834 -0.031918
v 0.006442 -0.015223 -0.031990
v 0.006928 -0.015142 -0.032115
v -0.006283 -0.014834 -0.031918
v -0.006283 -0.015223 -0.031990
v -0.006770 -0.014834 -0.031918
v -0.006770 -0.015142 -0.032115
v 0.006442 -0.018240 -0.035001
v 0.006928 -0.018158 -0.035126
v -0.006283 -0.018240 -0.035001
v -0.006770 -0.018158 -0.035126
v 0.006442 -0.020143 -0.037107
v 0.006928 -0.020061 -0.037232
v -0.006283 -0.020143 -0.037107
v -0.006770 -0.020061 -0.037232
v 0.006442 -0.021887 -0.039170
v 0.006928 -0.021805 -0.039295
v -0.006283 -0.021887 -0.039170
v -0.006770 -0.021805 -0.039295
v 0.006442 -0.023651 -0.041651
v 0.006928 -0.023570 -0.041776
v -0.006283 -0.023651 -0.041651
v -0.006770 -0.023570 -0.041776
v 0.006442 -0.023794 -0.042189
v 0.006928 -0.023794 -0.042189
v -0.006283 -0.023794 -0.042189
v -0.006770 -0.023794 -0.042189
vt 0.488148 0.567716
vt 0.488144 0.564034
vt 0.492698 0.577433
vt 0.485663 0.567719
vt 0.413671 0.577555
vt 0.420687 0.567820
vt 0.418197 0.564142
vt 0.418201 0.567824
vt 0.488103 0.523934
vt 0.492648 0.528661
vt 0.413621 0.528783
vt 0.418157 0.524042
vt 0.488075 0.496210
vt 0.492614 0.494941
vt 0.413587 0.495064
vt 0.418128 0.496318
vt 0.488049 0.470698
vt 0.492582 0.463912
vt 0.413554 0.464035
vt 0.418101 0.470806
vt 0.488019 0.441563
vt 0.492546 0.428476
vt 0.413518 0.428598
vt 0.418072 0.441671
vt 0.488015 0.436371
vt 0.485529 0.436375
vt 0.420553 0.436475
vt 0.418067 0.436479
vt 0.482848 0.554853
vt 0.480739 0.554857
vt 0.476872 0.543529
vt 0.482847 0.551439
vt 0.425599 0.554942
vt 0.429452 0.543602
vt 0.423490 0.554945
vt 0.423488 0.551531
vt 0.476847 0.511173
vt 0.482817 0.513818
vt 0.429427 0.511247
vt 0.423459 0.513909
vt 0.476829 0.490081
vt 0.482796 0.489291
vt 0.429409 0.490155
vt 0.423438 0.489383
vt 0.476811 0.470314
vt 0.482775 0.466306
vt 0.429391 0.470387
vt 0.423417 0.466398
vt 0.476789 0.449016
vt 0.482750 0.441542
vt 0.429368 0.449090
vt 0.423391 0.441634
vt 0.480636 0.438021
vt 0.482745 0.438017
vt 0.425496 0.438106
vt 0.423387 0.438109
vn 0.000000 0.822312 -0.569037
vn 0.000000 0.814086 -0.580744
vn 0.000000 0.816847 -0.576855
vn 0.000000 0.816847 -0.576855
vn 0.000000 0.822312 -0.569037
vn 0.000000 0.822312 -0.569037
vn 0.000000 0.822312 -0.569037
vn 0.000000 0.816847 -0.576855
vn 0.000000 0.816847 -0.576855
vn 0.000000 0.816847 -0.576855
vn 0.000000 0.822312 -0.569037
vn 0.000000 0.822312 -0.569037
vn 0.000000 0.822312 -0.569037
vn 0.000000 0.816847 -0.576855
vn 0.000000 0.814086 -0.580744
vn 0.000000 0.814086 -0.580744
vn 0.000000 0.822312 -0.569037
vn 0.000000 0.822312 -0.569037
vn 0.000000 0.814086 -0.580744
vn 0.000000 0.807579 -0.589759
vn 0.000000 0.807579 -0.589759
vn 0.000000 0.807579 -0.589759
vn 0.000000 0.816847 -0.576855
vn 0.000000 0.814086 -0.580744
vn 0.000000 0.816847 -0.576855
vn 0.000000 0.807579 -0.589759
vn 0.000000 0.807579 -0.589759
vn 0.000000 0.807579 -0.589759
vn 0.000000 0.814086 -0.580744
vn 0.000000 0.816847 -0.576855
vn 0.000000 0.807579 -0.589759
vn 0.000000 0.813886 -0.581024
vn 0.000000 0.813886 -0.581024
vn 0.000000 0.813886 -0.581024
vn 0.000000 0.807579 -0.589759
vn 0.000000 0.807579 -0.589759
vn 0.000000 0.807579 -0.589759
vn 0.000000 0.813886 -0.581024
vn 0.000000 0.813886 -0.581024
vn 0.000000 0.813886 -0.581024
vn 0.000000 0.807579 -0.589759
vn 0.000000 0.807579 -0.589759
vn 0.000000 0.813886 -0.581024
vn 0.000000 0.810276 -0.586049
vn 0.000000 0.810276 -0.586049
vn 0.000000 0.810276 -0.586049
vn 0.000000 0.813886 -0.581024
vn 0.000000 0.813886 -0.581024
vn 0.000000 0.813886 -0.581024
vn 0.000000 0.810276 -0.586049
vn 0.000000 0.810276 -0.586049
vn 0.000000 0.810276 -0.586049
vn 0.000000 0.813886 -0.581024
vn 0.000000 0.813886 -0.581024
vn 0.000000 0.810276 -0.586049
vn 0.000000 0.782046 -0.623220
vn 0.000000 0.775161 -0.631764
vn 0.000000 0.775161 -0.631764
vn 0.000000 0.810276 -0.586049
vn 0.000000 0.810276 -0.586049
vn 0.000000 0.810276 -0.586049
vn 0.000000 0.775161 -0.631764
vn 0.000000 0.782046 -0.623220
vn 0.000000 0.782046 -0.623220
vn 0.000000 0.810276 -0.586049
vn 0.000000 0.810276 -0.586049
vn 0.000000 0.782046 -0.623220
vn 0.000000 0.761118 -0.648613
vn 0.000000 0.761118 -0.648613
vn 0.000000 0.761118 -0.648613
vn 0.000000 0.775161 -0.631764
vn 0.000000 0.782046 -0.623220
vn 0.000000 0.775161 -0.631764
vn 0.000000 0.761118 -0.648613
vn 0.000000 0.761118 -0.648613
vn 0.000000 0.761118 -0.648613
vn 0.000000 0.775161 -0.631764
vn 0.000000 0.775161 -0.631764
vn 0.000000 0.775161 -0.631764
vn 0.000000 0.761118 -0.648613
vn 0.000000 0.761118 -0.648613
vn 0.000000 0.761118 -0.648613
vn 0.000000 0.782046 -0.623220
vn 0.000000 0.775161 -0.631764
vn 0.175787 -0.386919 0.905203
vn 0.000000 -0.181635 0.983366
vn 0.105525 -0.494871 0.862535
vn 0.105525 -0.494871 0.862535
vn 0.292582 -0.600907 0.743845
vn 0.175787 -0.386919 0.905203
vn 0.000000 -0.181635 0.983366
vn -0.085552 -0.256862 0.962654
vn -0.144123 -0.462133 0.875021
vn -0.144123 -0.462133 0.875021
vn 0.105525 -0.494871 0.862535
vn 0.000000 -0.181635 0.983366
vn -0.085552 -0.256862 0.962654
vn 0.000000 -0.539917 0.841718
vn -0.210161 -0.548078 0.809594
vn -0.210161 -0.548078 0.809594
vn -0.144123 -0.462133 0.875021
vn -0.085552 -0.256862 0.962654
vn 0.292582 -0.600907 0.743845
vn 0.105525 -0.494871 0.862535
vn 0.144177 -0.716457 0.682570
vn 0.144177 -0.716457 0.682570
vn 0.285822 -0.694873 0.659892
vn 0.292582 -0.600907 0.743845
vn 0.105525 -0.494871 0.862535
vn -0.144123 -0.462133 0.875021
vn -0.144158 -0.716477 0.682553
vn -0.144158 -0.716477 0.682553
vn 0.144177 -0.716457 0.682570
vn 0.105525 -0.494871 0.862535
vn -0.144123 -0.462133 0.875021
vn -0.210161 -0.548078 0.809594
vn -0.285852 -0.694900 0.659851
vn -0.285852 -0.694900 0.659851
vn -0.144158 -0.716477 0.682553
vn -0.144123 -0.462133 0.875021
vn 0.285822 -0.694873 0.659892
vn 0.144177 -0.716457 0.682570
vn 0.142809 -0.744887 0.651728
vn 0.142809 -0.744887 0.651728
vn 0.282999 -0.722625 0.630655
vn 0.285822 -0.694873 0.659892
vn 0.144177 -0.716457 0.682570
vn -0.144158 -0.716477 0.682553
vn -0.142816 -0.744893 0.651719
vn -0.142816 -0.744893 0.651719
vn 0.142809 -0.744887 0.651728
vn 0.144177 -0.716457 0.682570
vn -0.144158 -0.716477 0.682553
vn -0.285852 -0.694900 0.659851
vn -0.282981 -0.722645 0.630639
vn -0.282981 -0.722645 0.630639
vn -0.142816 -0.744893 0.651719
vn -0.144158 -0.716477 0.682553
vn 0.282999 -0.722625 0.630655
vn 0.142809 -0.744887 0.651728
vn 0.140288 -0.781453 0.607989
vn 0.140288 -0.781453 0.607989
vn 0.278400 -0.760300 0.586888
vn 0.282999 -0.722625 0.630655
vn 0.142809 -0.744887 0.651728
vn -0.142816 -0.744893 0.651719
vn -0.140309 -0.781454 0.607982
vn -0.140309 -0.781454 0.607982
vn 0.140288 -0.781453 0.607989
vn 0.142809 -0.744887 0.651728
vn -0.142816 -0.744893 0.651719
vn -0.282981 -0.722645 0.630639
vn -0.278355 -0.760323 0.586880
vn -0.278355 -0.760323 0.586880
vn -0.140309 -0.781454 0.607982
vn -0.142816 -0.744893 0.651719
vn 0.278400 -0.760300 0.586888
vn 0.140288 -0.781453 0.607989
vn 0.127016 -0.894297 0.429068
vn 0.127016 -0.894297 0.429068
vn 0.194276 -0.868650 0.455746
vn 0.278400 -0.760300 0.586888
vn 0.140288 -0.781453 0.607989
vn -0.140309 -0.781454 0.607982
vn -0.105251 -0.885669 0.452230
vn -0.105251 -0.885669 0.452230
vn 0.127016 -0.894297 0.429068
vn 0.140288 -0.781453 0.607989
vn -0.140309 -0.781454 0.607982
vn -0.278355 -0.760323 0.586880
vn -0.268220 -0.819227 0.506878
vn -0.268220 -0.819227 0.506878
vn -0.105251 -0.885669 0.452230
vn -0.140309 -0.781454 0.607982
vn 0.194276 -0.868650 0.455746
vn 0.127016 -0.894297 0.429068
vn 0.059018 -0.948125 0.312372
vn 0.059018 -0.948125 0.312372
vn 0.000000 -0.877856 0.478925
vn 0.194276 -0.868650 0.455746
vn 0.127016 -0.894297 0.429068
vn -0.105251 -0.885669 0.452230
vn 0.000000 -0.966355 0.257214
vn 0.000000 -0.966355 0.257214
vn 0.059018 -0.948125 0.312372
vn 0.127016 -0.894297 0.429068
vn -0.105251 -0.885669 0.452230
vn -0.268220 -0.819227 0.506878
vn -0.124425 -0.925056 0.358872
vn -0.124425 -0.925056 0.358872
vn 0.000000 -0.966355 0.257214
vn -0.105251 -0.885669 0.452230
vn 0.000000 0.572554 0.819867
vn 0.000000 0.572554 0.819867
vn 0.000000 0.572554 0.819867
vn 0.000000 0.572554 0.819867
vn 0.000000 0.572554 0.819867
vn 0.000000 0.572554 0.819867
vn 0.000000 0.572554 0.819867
vn 0.000000 0.572554 0.819867
vn 0.000000 0.572554 0.819867
vn 0.000000 0.572554 0.819867
vn 0.000000 0.572554 0.819867
vn 0.000000 0.572554 0.819867
vn 0.000000 0.572554 0.819867
vn 0.000000 0.572554 0.819867
vn 0.000000 0.572554 0.819867
vn 0.000000 0.572554 0.819867
vn 0.000000 0.572554 0.819867
vn 0.000000 0.572554 0.819867
vn -1.000000 0.000000 -0.000000
vn -1.000000 0.000000 -0.000000
vn -1.000000 0.000000 -0.000000
vn -1.000000 0.000000 -0.000000
vn -1.000000 0.000000 -0.000000
vn -1.000000 0.000000 -0.000000
vn -1.000000 0.000000 -0.000000
vn -1.000000 0.000000 -0.000000
vn -1.000000 0.000000 -0.000000
vn -1.000000 0.000000 -0.000000
vn -1.000000 0.000000 -0.000000
vn -1.000000 0.000000 -0.000000
vn -1.000000 0.000000 -0.000000
vn -1.000000 0.000000 -0.000000
vn -1.000000 0.000000 -0.000000
vn -1.000000 0.000000 -0.000000
vn -1.000000 0.000000 -0.000000
vn -1.000000 0.000000 -0.000000
vn -1.000000 0.000000 -0.000000
vn -1.000000 0.000000 -0.000000
vn -1.000000 0.000000 -0.000000
vn -1.000000 0.000000 -0.000000
vn -1.000000 0.000000 -0.000000
vn -1.000000 0.000000 -0.000000
vn -1.000000 0.000000 -0.000000
vn -1.000000 0.000000 -0.000000
vn -1.000000 0.000000 -0.000000
vn -1.000000 0.000000 -0.000000
vn -1.000000 0.000000 -0.000000
vn -1.000000 0.000000 -0.000000
vn -1.000000 0.000000 -0.000000
vn -1.000000 0.000000 -0.000000
vn -1.000000 0.000000 -0.000000
vn -1.000000 0.000000 -0.000000
vn -1.000000 0.000000 -0.000000
vn -1.000000 0.000000 -0.000000
vn 0.000000 -0.594284 -0.804256
vn 0.000000 -0.594284 -0.804255
vn 0.000000 -0.594284 -0.804256
vn 0.000000 -0.594284 -0.804256
vn 0.000000 -0.594284 -0.804256
vn 0.000000 -0.594284 -0.804256
vn 0.000000 -0.594284 -0.804255
vn 0.000000 -0.594284 -0.804256
vn 0.000000 -0.594284 -0.804255
vn 0.000000 -0.594284 -0.804255
vn 0.000000 -0.594284 -0.804256
vn 0.000000 -0.594284 -0.804255
vn 0.000000 -0.594284 -0.804256
vn 0.000000 -0.594284 -0.804256
vn 0.000000 -0.594284 -0.804256
vn 0.000000 -0.594284 -0.804256
vn 0.000000 -0.594284 -0.804255
vn 0.000000 -0.594284 -0.804256
vn 1.000000 0.000000 0.000000
vn 1.000000 0.000000 0.000000
vn 1.000000 0.000000 0.000000
vn 1.000000 0.000000 0.000000
vn 1.000000 0.000000 0.000000
vn 1.000000 0.000000 0.000000
vn 1.000000 0.000000 0.000000
vn 1.000000 0.000000 0.000000
vn 1.000000 0.000000 0.000000
vn 1.000000 0.000000 0.000000
vn 1.000000 0.000000 0.000000
vn 1.000000 0.000000 0.000000
vn 1.000000 0.000000 0.000000
vn 1.000000 0.000000 0.000000
vn 1.000000 0.000000 0.000000
vn 1.000000 0.000000 0.000000
vn 1.000000 0.000000 0.000000
vn 1.000000 0.000000 0.000000
vn 1.000000 0.000000 0.000000
vn 1.000000 0.000000 0.000000
vn 1.000000 0.000000 0.000000
vn 1.000000 0.000000 0.000000
vn 1.000000 0.000000 0.000000
vn 1.000000 0.000000 0.000000
vn 1.000000 0.000000 0.000000
vn 1.000000 0.000000 0.000000
vn 1.000000 0.000000 0.000000
vn 1.000000 0.000000 0.000000
vn 1.000000 0.000000 0.000000
vn 1.000000 0.000000 0.000000
vn 1.000000 0.000000 0.000000
vn 1.000000 0.000000 0.000000
vn 1.000000 0.000000 0.000000
vn 1.000000 0.000000 0.000000
vn 1.000000 0.000000 0.000000
vn 1.000000 0.000000 0.000000
s off
g ControllerTrigger
usemtl ControllerBase2:___Default
f 1/1/1 2/2/2 3/3/3
f 3/3/4 4/4/5 1/1/6
f 4/4/7 3/3/8 5/5/9
f 5/5/10 6/6/11 4/4/12
f 6/6/13 5/5/14 7/7/15
f 7/7/16 8/8/17 6/6/18
f 2/2/19 9/9/20 10/10/21
f 10/10/22 3/3/23 2/2/24
f 5/5/25 11/11/26 12/12/27
f 12/12/28 7/7/29 5/5/30
f 9/9/31 13/13/32 14/14/33
f 14/14/34 10/10/35 9/9/36
f 11/11/37 15/15/38 16/16/39
f 16/16/40 12/12/41 11/11/42
f 13/13/43 17/17/44 18/18/45
f 18/18/46 14/14/47 13/13/48
f 15/15/49 19/19/50 20/20/51
f 20/20/52 16/16/53 15/15/54
f 17/17/55 21/21/56 22/22/57
f 22/22/58 18/18/59 17/17/60
f 19/19/61 23/23/62 24/24/63
f 24/24/64 20/20/65 19/19/66
f 21/21/67 25/25/68 26/26/69
f 26/26/70 22/22/71 21/21/72
f 22/22/73 26/26/74 27/27/75
f 27/27/76 23/23/77 22/22/78
f 23/23/79 27/27/80 28/28/81
f 28/28/82 24/24/83 23/23/84
f 29/29/85 30/30/86 31/31/87
f 31/31/88 32/32/89 29/29/90
f 30/30/91 33/33/92 34/34/93
f 34/34/94 31/31/95 30/30/96
f 33/33/97 35/35/98 36/36/99
f 36/36/100 34/34/101 33/33/102
f 32/32/103 31/31/104 37/37/105
f 37/37/106 38/38/107 32/32/108
f 31/31/109 34/34/110 39/39/111
f 39/39/112 37/37/113 31/31/114
f 34/34/115 36/36/116 40/40/117
f 40/40/118 39/39/119 34/34/120
f 38/38/121 37/37/122 41/41/123
f 41/41/124 42/42/125 38/38/126
f 37/37/127 39/39/128 43/43/129
f 43/43/130 41/41/131 37/37/132
f 39/39/133 40/40/134 44/44/135
f 44/44/136 43/43/137 39/39/138
f 42/42/139 41/41/140 45/45/141
f 45/45/142 46/46/143 42/42/144
f 41/41/145 43/43/146 47/47/147
f 47/47/148 45/45/149 41/41/150
f 43/43/151 44/44/152 48/48/153
f 48/48/154 47/47/155 43/43/156
f 46/46/157 45/45/158 49/49/159
f 49/49/160 50/50/161 46/46/162
f 45/45/163 47/47/164 51/51/165
f 51/51/166 49/49/167 45/45/168
f 47/47/169 48/48/170 52/52/171
f 52/52/172 51/51/173 47/47/174
f 50/50/175 49/49/176 53/53/177
f 53/53/178 54/54/179 50/50/180
f 49/49/181 51/51/182 55/55/183
f 55/55/184 53/53/185 49/49/186
f 51/51/187 52/52/188 56/56/189
f 56/56/190 55/55/191 51/51/192
f 1/1/193 4/4/194 30/30/195
f 30/30/196 29/29/197 1/1/198
f 4/4/199 6/6/200 33/33/201
f 33/33/202 30/30/203 4/4/204
f 6/6/205 8/8/206 35/35/207
f 35/35/208 33/33/209 6/6/210
f 8/8/211 7/7/212 36/36/213
f 36/36/214 35/35/215 8/8/216
f 7/7/217 12/12/218 40/40/219
f 40/40/220 36/36/221 7/7/222
f 12/12/223 16/16/224 44/44/225
f 44/44/226 40/40/227 12/12/228
f 16/16/229 20/20/230 48/48/231
f 48/48/232 44/44/233 16/16/234
f 20/20/235 24/24/236 52/52/237
f 52/52/238 48/48/239 20/20/240
f 24/24/241 28/28/242 56/56/243
f 56/56/244 52/52/245 24/24/246
f 28/28/247 27/27/248 55/55/249
f 55/55/250 56/56/251 28/28/252
f 27/27/253 26/26/254 53/53/255
f 53/53/256 55/55/257 27/27/258
f 26/26/259 25/25/260 54/54/261
f 54/54/262 53/53/263 26/26/264
f 25/25/265 21/21/266 50/50/267
f 50/50/268 54/54/269 25/25/270
f 21/21/271 17/17/272 46/46/273
f 46/46/274 50/50/275 21/21/276
f 17/17/277 13/13/278 42/42/279
f 42/42/280 46/46/281 17/17/282
f 13/13/283 9/9/284 38/38/285
f 38/38/286 42/42/287 13/13/288
f 9/9/289 2/2/290 32/32/291
f 32/32/292 38/38/293 9/9/294
f 2/2/295 1/1/296 29/29/297
f 29/29/298 32/32/299 2/2/300
