# This file uses centimeters as units for non-parametric coordinates.

mtllib controller_cosmos.mtl
g default
v 0.008119 0.006115 0.129932
v 0.007627 0.005085 0.134869
v 0.005213 0.006332 0.134880
v 0.005602 0.007339 0.129776
v 0.002362 0.007187 0.134846
v -0.000837 0.007435 0.134792
v -0.000579 0.008434 0.129532
v 0.002657 0.008175 0.129623
v -0.007214 0.005562 0.134457
v -0.009688 0.003647 0.134277
v -0.010059 0.004768 0.129185
v -0.007252 0.006710 0.129349
v -0.004147 0.006893 0.134647
v -0.003937 0.007988 0.129467
vt 0.009382 0.390466
vt 0.006287 0.008258
vt 0.151456 0.008258
vt 0.155549 0.390466
vt 0.308820 0.008258
vt 0.476769 0.008258
vt 0.469842 0.390466
vt 0.309360 0.390466
vt 0.829217 0.008258
vt 0.993763 0.008258
vt 0.993008 0.390466
vt 0.817425 0.390466
vt 0.652478 0.008258
vt 0.638182 0.390466
vn 0.510132 0.813027 0.280626
vn 0.335490 0.902718 0.269347
vn 0.338719 0.862126 0.376840
vn 0.509532 0.775274 0.373267
vn 0.141237 0.914559 0.378992
vn 0.145146 0.954433 0.260750
vn -0.068512 0.964025 0.256830
vn -0.084189 0.922364 0.377036
vn -0.511606 0.783247 0.353249
vn -0.492898 0.831887 0.254981
vn -0.678295 0.688641 0.256301
vn -0.686344 0.644297 0.337364
vn -0.068512 0.964025 0.256830
vn -0.288145 0.922960 0.255180
vn -0.309882 0.876812 0.367661
vn -0.084189 0.922364 0.377036
vn -0.288145 0.922960 0.255180
vn -0.492898 0.831887 0.254981
vn -0.511606 0.783247 0.353249
vn -0.309882 0.876812 0.367661
vn 0.335490 0.902718 0.269347
vn 0.145146 0.954433 0.260750
vn 0.141237 0.914559 0.378992
vn 0.338719 0.862126 0.376840
s off
g L_status Ctrl_L
usemtl body
f 1/1/1 4/4/2 3/3/3 2/2/4
f 5/5/5 8/8/6 7/7/7 6/6/8
f 9/9/9 12/12/10 11/11/11 10/10/12
f 7/7/13 14/14/14 13/13/15 6/6/16
f 14/14/17 12/12/18 9/9/19 13/13/20
f 4/4/21 8/8/22 5/5/23 3/3/24
